<svg id='T-Shirt_24' width='24' height='24' viewBox='0 0 24 24' xmlns='http://www.w3.org/2000/svg' xmlns:xlink='http://www.w3.org/1999/xlink'><rect width='24' height='24' stroke='none' fill='#000000' opacity='0'/>


<g transform="matrix(0.04 0 0 0.04 12 12)" >
<g style="" >
<g transform="matrix(1 0 0 1 -197.75 -15.08)" >
<path style="stroke: none; stroke-width: 1; stroke-dasharray: none; stroke-linecap: butt; stroke-dashoffset: 0; stroke-linejoin: miter; stroke-miterlimit: 4; fill: rgb(246,133,31); fill-rule: nonzero; opacity: 1;" transform=" translate(-58.25, -240.92)" d="M 81.3 238.4 C 74.2 238.1 66.5 234.70000000000002 60.8 232.5 C 51.9 229 43.4 224.7 34.699999999999996 220.9 C 33.599999999999994 225.5 32.8 230.1 33.4 234.6 C 34.4 241.7 40.199999999999996 246.1 46 249.5 C 51.4 252.7 57.3 255.2 63.1 257.3 C 66.8 258.6 75.6 262.3 79.4 260.40000000000003 C 80.80000000000001 259.70000000000005 82.10000000000001 259.6 83.30000000000001 259.8 C 82.7 252.7 82 245.5 81.3 238.4 z" stroke-linecap="round" />
</g>
<g transform="matrix(1 0 0 1 -16.35 10.5)" >
<path style="stroke: none; stroke-width: 1; stroke-dasharray: none; stroke-linecap: butt; stroke-dashoffset: 0; stroke-linejoin: miter; stroke-miterlimit: 4; fill: rgb(254,191,16); fill-rule: nonzero; opacity: 1;" transform=" translate(-239.65, -266.5)" d="M 392.5 404.3 C 389.9 392.3 391.4 378.8 391.7 366.6 C 392.4 340.3 394.3 314.1 394.4 287.8 C 394.5 255.60000000000002 393 223.3 389.09999999999997 191.3 C 387.4 177.3 384.7 163.4 383.09999999999997 149.4 C 381.9 138.8 381.29999999999995 128 378.9 117.60000000000001 C 376.7 108.00000000000001 373.2 97.9 364.9 91.70000000000002 C 360.09999999999997 88.10000000000002 354.2 85.40000000000002 349 82.30000000000001 C 341.7 77.80000000000001 334.3 73.30000000000001 326.6 69.4 C 323.5 67.9 320.3 66.10000000000001 316.90000000000003 65.30000000000001 C 316.40000000000003 65.20000000000002 314.50000000000006 64.9 314.20000000000005 64.80000000000001 C 313.40000000000003 65.50000000000001 312.50000000000006 65.9 311.50000000000006 66.10000000000001 C 311.1000000000001 73.60000000000001 309.6000000000001 81.10000000000001 307.20000000000005 88.20000000000002 C 300.70000000000005 106.60000000000002 282.40000000000003 119.00000000000001 264.1 123.60000000000002 C 243.00000000000003 128.90000000000003 222.50000000000003 126.80000000000003 201.3 123.40000000000002 C 180.7 120 157.8 107 150.8 86 C 148.9 80.3 148.4 71.3 150.20000000000002 63.5 C 148.10000000000002 65.2 145.9 67.9 145.00000000000003 68.8 C 142.20000000000002 71.8 139.60000000000002 75 136.60000000000002 77.8 C 127.60000000000002 86.1 117.20000000000002 91.8 106.60000000000002 97.8 C 101.70000000000002 100.6 96.60000000000002 102.6 91.50000000000003 105 C 88.20000000000003 106.5 83.60000000000002 108.5 82.90000000000003 112.5 C 81.10000000000004 122.6 83.20000000000003 133.1 83.60000000000004 143.3 C 84.20000000000003 158.5 86.20000000000003 173.70000000000002 87.70000000000003 188.8 C 89.00000000000003 202.20000000000002 90.40000000000003 215.60000000000002 91.70000000000003 229.10000000000002 C 92.40000000000003 230.50000000000003 92.60000000000004 232.20000000000002 92.20000000000003 233.70000000000002 C 92.30000000000003 235.00000000000003 92.50000000000003 236.3 92.60000000000004 237.60000000000002 C 95.80000000000004 270.1 98.80000000000004 302.6 100.70000000000003 335.20000000000005 C 102.50000000000003 367.20000000000005 103.80000000000003 399.1 100.10000000000004 431.1 C 100.10000000000004 431.20000000000005 100.10000000000004 431.40000000000003 100.00000000000004 431.5 C 101.50000000000004 432.2 102.80000000000004 433.6 103.20000000000005 435.6 C 103.80000000000004 438.70000000000005 106.70000000000005 441.20000000000005 109.20000000000005 442.90000000000003 C 116.60000000000005 448.00000000000006 126.00000000000004 450.40000000000003 134.60000000000005 452.50000000000006 C 143.50000000000006 454.70000000000005 152.30000000000004 456.80000000000007 161.20000000000005 459.1000000000001 C 191.90000000000003 467.1000000000001 222.50000000000006 470.1000000000001 254.20000000000005 469.4000000000001 C 286.00000000000006 468.7000000000001 318.00000000000006 465.9000000000001 349.1 458.7000000000001 C 358.20000000000005 456.6000000000001 367.6 454.7000000000001 376.6 451.9000000000001 C 382.40000000000003 450.1000000000001 392.70000000000005 447.2000000000001 392.3 439.5000000000001 C 392.2 437.5000000000001 393 436.0000000000001 394.2 435.0000000000001 C 393.4 433.3000000000001 393.5 431.3000000000001 395.09999999999997 429.4000000000001 C 400.3 423.2 394 411.1 392.5 404.3 z" stroke-linecap="round" />
</g>
<g transform="matrix(1 0 0 1 -21 -104.1)" >
<path style="stroke: none; stroke-width: 1; stroke-dasharray: none; stroke-linecap: butt; stroke-dashoffset: 0; stroke-linejoin: miter; stroke-miterlimit: 4; fill: rgb(246,133,31); fill-rule: nonzero; opacity: 1;" transform=" translate(-235, -151.9)" d="M 300.5 57.9 C 295.9 86.8 264.8 104.6 236.7 105.3 C 221.79999999999998 105.7 206.29999999999998 102.89999999999999 193.6 94.7 C 180.5 86.3 171.29999999999998 74.30000000000001 165.79999999999998 59.800000000000004 C 165.6 59.300000000000004 165.49999999999997 58.900000000000006 165.49999999999997 58.50000000000001 C 164.69999999999996 58.60000000000001 163.99999999999997 59.00000000000001 163.19999999999996 60.00000000000001 C 158.79999999999995 65.80000000000001 158.59999999999997 75.9 161.09999999999997 82.4 C 164.99999999999997 92.80000000000001 173.49999999999997 100.80000000000001 183.19999999999996 105.80000000000001 C 192.59999999999997 110.60000000000001 202.59999999999997 112.80000000000001 212.99999999999997 114.30000000000001 C 223.39999999999998 115.9 233.99999999999997 116.60000000000001 244.49999999999997 115.70000000000002 C 264.4 114.10000000000002 285.79999999999995 106.80000000000001 295.4 87.80000000000001 C 298.2 82.20000000000002 299.59999999999997 75.60000000000001 300.4 68.60000000000001 C 300.8 65.2 301.1 61.4 300.5 57.9 z M 71.8 133 C 71.6 129.3 71.1 124.9 71 120.6 C 68.4 124 66.5 128.2 65 131.5 C 62 137.9 59.7 144.5 57.1 151 C 53 161.2 49.6 171.6 46.3 182 C 43.4 191.3 40 200.7 37.599999999999994 210.2 C 37.99999999999999 210.29999999999998 38.3 210.39999999999998 38.699999999999996 210.6 C 47.099999999999994 214.2 55.199999999999996 218.4 63.599999999999994 221.79999999999998 C 67.8 223.49999999999997 74.8 226.89999999999998 80.39999999999999 227.39999999999998 C 77 195.9 73.9 164.5 71.8 133 z M 430.3 202.3 C 424.7 210.9 412.3 212.8 402.6 215.60000000000002 C 403.40000000000003 225.70000000000002 404.1 235.8 404.5 245.90000000000003 C 415.9 245.50000000000003 427.9 241.70000000000005 431 229.30000000000004 C 433.4 220.4 432.4 211.2 430.3 202.3 z M 425.9 186.7 C 422.9 177 419.4 167.39999999999998 415.4 158.1 C 412 150 408.59999999999997 142.5 402.9 135.7 C 399.09999999999997 131.2 394.9 126.89999999999999 390.9 122.39999999999999 C 391.59999999999997 126.49999999999999 392.09999999999997 130.7 392.5 134.79999999999998 C 393.8 146.49999999999997 395.5 157.89999999999998 397.2 169.5 C 398.9 181.2 400.3 192.9 401.5 204.7 C 409.4 203 420.7 201.1 422 193.39999999999998 C 422.5 190.59999999999997 424.4 189.29999999999998 426.5 189.09999999999997 C 426.4 188.3 426.2 187.5 425.9 186.7 z" stroke-linecap="round" />
</g>
<g transform="matrix(1 0 0 1 -23.21 6.12)" >
<path style="stroke: none; stroke-width: 1; stroke-dasharray: none; stroke-linecap: butt; stroke-dashoffset: 0; stroke-linejoin: miter; stroke-miterlimit: 4; fill: rgb(0,0,0); fill-rule: nonzero; opacity: 1;" transform=" translate(-232.79, -262.12)" d="M 439.7 195.3 C 437 184.8 433.7 174.5 429.8 164.3 C 426.2 154.8 422.5 144.8 417.1 136.20000000000002 C 407.90000000000003 121.70000000000002 391.70000000000005 111.80000000000001 386.20000000000005 95.10000000000002 C 385.20000000000005 92.00000000000003 382.50000000000006 91.10000000000002 380.00000000000006 91.70000000000002 C 376.40000000000003 86.60000000000002 371.80000000000007 82.30000000000001 366.30000000000007 79.70000000000002 C 359.9000000000001 76.80000000000001 354.00000000000006 72.50000000000001 348.00000000000006 68.80000000000001 C 340.30000000000007 64.20000000000002 332.50000000000006 59.500000000000014 324.1000000000001 56.20000000000001 C 320.00000000000006 54.60000000000001 314.9000000000001 53.10000000000001 310.80000000000007 54.30000000000001 C 309.20000000000005 48.90000000000001 305.6000000000001 44.30000000000001 299.30000000000007 44.80000000000001 C 296.20000000000005 42.20000000000001 289.80000000000007 44.000000000000014 290.00000000000006 49.40000000000001 C 291.20000000000005 78.70000000000002 259.40000000000003 93.70000000000002 234.40000000000006 94.4 C 208.30000000000007 95.10000000000001 185.40000000000006 80.80000000000001 176.20000000000005 56.2 C 175.80000000000004 55.300000000000004 175.30000000000004 54.5 174.70000000000005 54 C 174.80000000000004 51.6 173.50000000000006 49 170.50000000000006 48.1 C 164.20000000000005 46.300000000000004 159.40000000000006 47.800000000000004 156.10000000000005 51.2 C 155.90000000000006 51.2 155.70000000000005 51.1 155.50000000000006 51.1 C 146.00000000000006 49.7 138.20000000000005 59.7 132.50000000000006 65.9 C 123.80000000000005 75.5 112.80000000000005 81.60000000000001 101.60000000000005 87.80000000000001 C 92.90000000000005 92.70000000000002 81.00000000000006 95.30000000000001 74.70000000000005 103.50000000000001 C 74.30000000000004 104.00000000000001 74.00000000000004 104.50000000000001 73.70000000000005 105.00000000000001 C 73.50000000000004 105.10000000000001 73.30000000000004 105.10000000000001 73.00000000000004 105.20000000000002 C 57.700000000000045 111.60000000000002 52.40000000000004 132.00000000000003 46.90000000000004 146 C 38.00000000000004 168.7 30.000000000000043 192.6 24.40000000000004 216.3 C 22.60000000000004 224.10000000000002 21.200000000000042 231.70000000000002 23.000000000000043 239.60000000000002 C 25.100000000000044 248.70000000000002 33.30000000000004 254.8 40.80000000000004 259.3 C 47.70000000000004 263.40000000000003 55.30000000000004 266.3 62.90000000000004 268.8 C 69.60000000000004 271 77.40000000000003 272.90000000000003 84.10000000000004 270 C 85.60000000000004 286.1 87.00000000000004 302.3 88.20000000000003 318.4 C 90.80000000000003 355.09999999999997 93.10000000000004 392.09999999999997 88.90000000000003 428.79999999999995 C 88.60000000000004 431.4 89.90000000000003 433.4 91.70000000000003 434.4 C 91.60000000000004 435 91.60000000000004 435.59999999999997 91.80000000000003 436.29999999999995 C 95.50000000000003 454.79999999999995 118.80000000000003 459.99999999999994 134.3 463.69999999999993 C 158.60000000000002 469.5999999999999 182.70000000000002 476.19999999999993 207.70000000000002 478.79999999999995 C 238.9 482.09999999999997 271 480.49999999999994 302.1 477.19999999999993 C 327.6 474.49999999999994 352.90000000000003 469.29999999999995 377.70000000000005 462.5999999999999 C 389.6 459.3999999999999 403.6 452.7999999999999 402.80000000000007 438.3999999999999 C 402.80000000000007 437.7999999999999 402.70000000000005 437.2999999999999 402.50000000000006 436.8999999999999 C 402.6000000000001 436.7999999999999 402.80000000000007 436.5999999999999 402.90000000000003 436.49999999999994 C 410.8 427.59999999999997 406.70000000000005 415.3999999999999 403.8 405.29999999999995 C 402.1 399.19999999999993 402.1 392.79999999999995 402.1 386.49999999999994 C 402 378.29999999999995 402.3 370.09999999999997 402.5 361.99999999999994 C 403.4 329.8999999999999 405.5 297.99999999999994 404.9 265.79999999999995 C 404.79999999999995 262.79999999999995 404.79999999999995 259.79999999999995 404.7 256.9 C 418.8 256.5 432.3 251.49999999999997 439.09999999999997 238.29999999999998 C 446.2 225.1 443.2 209 439.7 195.3 z M 163.2 59.9 C 163.89999999999998 59 164.6 58.6 165.5 58.4 C 165.6 58.8 165.7 59.3 165.8 59.699999999999996 C 171.20000000000002 74.19999999999999 180.5 86.19999999999999 193.60000000000002 94.6 C 206.3 102.8 221.8 105.6 236.70000000000002 105.19999999999999 C 264.8 104.49999999999999 295.90000000000003 86.69999999999999 300.5 57.79999999999999 C 301.1 61.29999999999999 300.9 65.1 300.5 68.6 C 299.7 75.5 298.3 82.1 295.5 87.8 C 285.9 106.8 264.5 114 244.6 115.69999999999999 C 234.1 116.6 223.5 115.89999999999999 213.1 114.29999999999998 C 202.79999999999998 112.69999999999999 192.7 110.59999999999998 183.29999999999998 105.79999999999998 C 173.49999999999997 100.79999999999998 165.1 92.79999999999998 161.2 82.39999999999998 C 158.7 75.8 158.8 65.7 163.2 59.9 z M 46.1 182 C 49.4 171.6 52.9 161.2 56.900000000000006 151 C 59.50000000000001 144.5 61.900000000000006 137.9 64.80000000000001 131.5 C 66.30000000000001 128.2 68.20000000000002 124 70.80000000000001 120.6 C 70.9 125 71.4 129.29999999999998 71.60000000000001 133 C 73.7 164.5 76.9 195.9 80.00000000000001 227.3 C 74.40000000000002 226.70000000000002 67.40000000000002 223.3 63.20000000000002 221.70000000000002 C 54.80000000000002 218.3 46.600000000000016 214.20000000000002 38.30000000000002 210.50000000000003 C 37.90000000000002 210.30000000000004 37.600000000000016 210.20000000000002 37.20000000000002 210.10000000000002 C 39.9 200.7 43.2 191.3 46.1 182 z M 79.5 260.4 C 75.7 262.4 66.9 258.7 63.2 257.29999999999995 C 57.300000000000004 255.19999999999996 51.5 252.69999999999996 46.1 249.49999999999994 C 40.300000000000004 246.09999999999994 34.5 241.69999999999993 33.5 234.59999999999994 C 32.9 230.09999999999994 33.7 225.39999999999995 34.8 220.89999999999995 C 43.5 224.69999999999996 52 228.99999999999994 60.9 232.49999999999994 C 66.6 234.69999999999993 74.3 238.09999999999994 81.4 238.39999999999995 C 82.10000000000001 245.59999999999994 82.80000000000001 252.69999999999996 83.5 259.9 C 82.2 259.6 80.8 259.7 79.5 260.4 z M 394.9 429.3 C 393.29999999999995 431.1 393.2 433.2 394 434.90000000000003 C 392.8 435.90000000000003 392 437.40000000000003 392.1 439.40000000000003 C 392.5 447.1 382.3 450.00000000000006 376.40000000000003 451.8 C 367.40000000000003 454.5 358.00000000000006 456.40000000000003 348.90000000000003 458.6 C 317.8 465.90000000000003 285.8 468.6 254.00000000000003 469.3 C 222.30000000000004 470 191.70000000000005 467 161.00000000000003 459 C 152.20000000000002 456.7 143.30000000000004 454.6 134.40000000000003 452.4 C 125.80000000000004 450.29999999999995 116.40000000000003 447.9 109.00000000000003 442.79999999999995 C 106.50000000000003 441.09999999999997 103.60000000000002 438.59999999999997 103.00000000000003 435.49999999999994 C 102.60000000000002 433.49999999999994 101.40000000000003 432.09999999999997 99.80000000000003 431.3999999999999 C 99.80000000000003 431.2999999999999 99.90000000000002 431.0999999999999 99.90000000000002 430.99999999999994 C 103.60000000000002 399.09999999999997 102.30000000000003 367.19999999999993 100.50000000000001 335.0999999999999 C 98.60000000000001 302.4999999999999 95.60000000000001 269.9999999999999 92.40000000000002 237.49999999999991 C 92.30000000000003 236.1999999999999 92.10000000000002 234.89999999999992 92.00000000000001 233.5999999999999 C 92.50000000000001 232.0999999999999 92.20000000000002 230.2999999999999 91.50000000000001 228.99999999999991 C 90.20000000000002 215.5999999999999 88.80000000000001 202.1999999999999 87.50000000000001 188.69999999999993 C 86.00000000000001 173.59999999999994 84.00000000000001 158.29999999999993 83.40000000000002 143.19999999999993 C 83.00000000000001 133.09999999999994 80.90000000000002 122.49999999999993 82.70000000000002 112.39999999999993 C 83.40000000000002 108.39999999999993 88.00000000000001 106.49999999999993 91.30000000000001 104.89999999999993 C 96.4 102.49999999999993 101.50000000000001 100.39999999999993 106.4 97.69999999999993 C 116.9 91.69999999999993 127.4 85.99999999999993 136.4 77.69999999999993 C 139.4 74.89999999999993 142 71.69999999999993 144.8 68.69999999999993 C 145.70000000000002 67.69999999999993 147.9 65.09999999999994 150 63.399999999999935 C 148.3 71.19999999999993 148.7 80.19999999999993 150.6 85.89999999999993 C 157.6 106.89999999999993 180.5 119.89999999999993 201.3 123.29999999999993 C 222.4 126.79999999999993 243 128.79999999999993 264.1 123.49999999999993 C 282.40000000000003 118.89999999999993 300.70000000000005 106.49999999999993 307.20000000000005 88.09999999999994 C 309.70000000000005 81.09999999999994 311.1 73.49999999999994 311.50000000000006 65.99999999999994 C 312.40000000000003 65.79999999999994 313.40000000000003 65.39999999999995 314.20000000000005 64.69999999999995 C 314.50000000000006 64.79999999999994 316.40000000000003 65.09999999999995 316.90000000000003 65.19999999999995 C 320.3 66.09999999999995 323.50000000000006 67.79999999999994 326.6 69.29999999999994 C 334.3 73.19999999999995 341.70000000000005 77.69999999999995 349 82.19999999999995 C 354.2 85.39999999999995 360.1 87.99999999999994 364.9 91.59999999999995 C 373.09999999999997 97.69999999999995 376.59999999999997 107.89999999999995 378.9 117.49999999999994 C 381.29999999999995 127.89999999999995 381.79999999999995 138.69999999999993 383.09999999999997 149.29999999999995 C 384.79999999999995 163.29999999999995 387.4 177.19999999999996 389.09999999999997 191.19999999999996 C 392.9 223.19999999999996 394.49999999999994 255.39999999999998 394.4 287.69999999999993 C 394.29999999999995 313.99999999999994 392.4 340.19999999999993 391.7 366.49999999999994 C 391.4 378.69999999999993 389.9 392.19999999999993 392.5 404.19999999999993 C 394 411.1 400.3 423.2 394.9 429.3 z M 401.6 204.7 C 400.40000000000003 193 399 181.2 397.3 169.5 C 395.6 157.9 393.90000000000003 146.4 392.6 134.8 C 392.20000000000005 130.70000000000002 391.6 126.50000000000001 391 122.4 C 395 126.80000000000001 399.2 131.1 403 135.70000000000002 C 408.7 142.50000000000003 412 150.00000000000003 415.5 158.10000000000002 C 419.5 167.50000000000003 422.9 177.00000000000003 426 186.70000000000002 C 426.3 187.50000000000003 426.5 188.3 426.8 189.20000000000002 C 424.7 189.4 422.7 190.70000000000002 422.3 193.50000000000003 C 420.8 201.1 409.5 203 401.6 204.7 z M 431.1 229.3 C 428 241.70000000000002 416 245.5 404.6 245.9 C 404.20000000000005 235.8 403.5 225.70000000000002 402.70000000000005 215.6 C 412.40000000000003 212.79999999999998 424.80000000000007 210.79999999999998 430.40000000000003 202.29999999999998 C 432.4 211.2 433.4 220.4 431.1 229.3 z" stroke-linecap="round" />
</g>
</g>
</g>
</svg>